<svg xmlns="http://www.w3.org/2000/svg" xmlns:xlink="http://www.w3.org/1999/xlink" width="40" zoomAndPan="magnify" viewBox="0 0 30 30.000001" height="40" preserveAspectRatio="xMidYMid meet" version="1.0"><defs><clipPath id="a72e26ce35"><path d="M 10.265625 0.890625 L 19.699219 0.890625 L 19.699219 28.46875 L 10.265625 28.46875 Z M 10.265625 0.890625 " clip-rule="nonzero"/></clipPath></defs><g clip-path="url(#a72e26ce35)"><path fill="#ffffff" d="M 17.648438 24.304688 L 19.730469 24.304688 L 19.730469 28.140625 L 10.269531 28.140625 L 10.269531 24.304688 L 12.382812 24.304688 L 12.382812 13.175781 L 12.203125 13.175781 C 11.132812 13.175781 10.300781 12.3125 10.300781 11.273438 C 10.300781 10.203125 11.160156 9.367188 12.203125 9.367188 L 17.648438 9.367188 Z M 14.703125 7.316406 C 16.488281 7.316406 17.914062 5.886719 17.914062 4.101562 C 17.914062 2.316406 16.488281 0.890625 14.703125 0.890625 C 12.917969 0.890625 11.488281 2.316406 11.488281 4.101562 C 11.488281 5.886719 12.917969 7.316406 14.703125 7.316406 Z M 14.703125 7.316406 " fill-opacity="1" fill-rule="nonzero"/></g></svg>