<svg xmlns="http://www.w3.org/2000/svg" xmlns:xlink="http://www.w3.org/1999/xlink" width="40" zoomAndPan="magnify" viewBox="0 0 30 30.000001" height="40" preserveAspectRatio="xMidYMid meet" version="1.0"><defs><clipPath id="a6a90a5176"><path d="M 0.484375 4.480469 L 29.515625 4.480469 L 29.515625 24.804688 L 0.484375 24.804688 Z M 0.484375 4.480469 " clip-rule="nonzero"/></clipPath></defs><g clip-path="url(#a6a90a5176)"><path fill="#ffffff" d="M 21.792969 11.097656 C 21.933594 11.089844 22.066406 11.074219 22.203125 11.074219 C 22.824219 11.066406 23.4375 11.144531 24.042969 11.242188 C 25.433594 11.460938 26.769531 11.878906 28.066406 12.449219 C 28.289062 12.546875 28.527344 12.632812 28.753906 12.738281 C 28.980469 12.835938 29.175781 12.976562 29.347656 13.15625 C 29.515625 13.328125 29.511719 13.546875 29.308594 13.6875 C 29.203125 13.761719 29.082031 13.820312 28.960938 13.847656 C 27.855469 14.144531 26.804688 14.566406 25.730469 14.933594 C 24.644531 15.308594 23.582031 15.75 22.515625 16.195312 C 22.105469 16.367188 21.730469 16.59375 21.367188 16.847656 C 20.054688 17.761719 18.75 18.6875 17.429688 19.585938 C 16.390625 20.304688 15.359375 21.042969 14.25 21.664062 C 13.550781 22.054688 12.851562 22.441406 12.164062 22.859375 C 11.75 23.113281 11.351562 23.402344 10.910156 23.628906 C 10.664062 23.753906 10.425781 23.910156 10.171875 24.019531 C 9.90625 24.136719 9.628906 24.210938 9.355469 24.296875 C 9.160156 24.355469 8.964844 24.402344 8.761719 24.441406 C 8.574219 24.476562 8.386719 24.523438 8.195312 24.523438 C 7.136719 24.535156 6.078125 24.460938 5.039062 24.257812 C 4.628906 24.175781 4.230469 24.003906 3.832031 23.851562 C 3.164062 23.597656 2.558594 23.242188 1.96875 22.851562 C 1.476562 22.511719 1.144531 22.054688 0.96875 21.496094 C 0.65625 20.507812 0.484375 19.5 0.609375 18.460938 C 0.699219 17.753906 0.785156 17.050781 1.039062 16.378906 C 1.148438 16.089844 1.265625 15.800781 1.398438 15.519531 C 1.703125 14.882812 2.042969 14.269531 2.472656 13.710938 C 3.078125 12.910156 3.765625 12.199219 4.546875 11.566406 C 5.246094 11 6.003906 10.519531 6.847656 10.207031 C 7.074219 10.125 7.304688 10.0625 7.535156 10.003906 C 7.605469 9.988281 7.628906 9.957031 7.628906 9.890625 C 7.644531 9.328125 7.664062 8.765625 7.691406 8.207031 C 7.703125 8.046875 7.75 7.882812 7.796875 7.722656 C 7.859375 7.507812 8.003906 7.34375 8.183594 7.222656 C 8.484375 7.027344 8.785156 6.835938 9.089844 6.65625 C 9.417969 6.460938 9.738281 6.246094 10.027344 6 C 10.773438 5.375 11.617188 4.941406 12.539062 4.65625 C 13.09375 4.492188 13.660156 4.519531 14.226562 4.59375 C 14.726562 4.664062 15.199219 4.789062 15.628906 5.070312 C 15.691406 5.109375 15.777344 5.136719 15.851562 5.144531 C 16.019531 5.160156 16.1875 5.171875 16.355469 5.171875 C 16.414062 5.171875 16.472656 5.160156 16.523438 5.136719 C 17.09375 4.894531 17.695312 4.773438 18.316406 4.789062 C 18.769531 4.800781 19.222656 4.917969 19.648438 5.078125 C 20.042969 5.222656 20.425781 5.390625 20.804688 5.570312 C 21.058594 5.6875 21.246094 5.878906 21.273438 6.179688 C 21.308594 6.582031 21.359375 6.980469 21.402344 7.386719 C 21.5 8.375 21.59375 9.363281 21.691406 10.351562 C 21.714844 10.578125 21.746094 10.800781 21.777344 11.027344 C 21.777344 11.050781 21.789062 11.066406 21.792969 11.097656 Z M 15.476562 18.113281 C 14.886719 18.1875 14.285156 18.265625 13.691406 18.34375 C 12.539062 18.5 11.382812 18.605469 10.21875 18.546875 C 9.015625 18.488281 7.980469 18.050781 7.101562 17.222656 C 6.796875 16.933594 6.703125 16.59375 6.8125 16.1875 C 6.871094 15.96875 6.910156 15.742188 6.964844 15.523438 C 7.003906 15.351562 7.0625 15.175781 7.210938 15.0625 C 7.261719 15.019531 7.273438 14.988281 7.28125 14.921875 C 7.304688 14.414062 7.320312 13.90625 7.351562 13.398438 C 7.363281 13.230469 7.417969 13.085938 7.5625 12.976562 C 7.585938 12.957031 7.597656 12.917969 7.597656 12.882812 C 7.609375 12.03125 7.621094 11.183594 7.632812 10.332031 C 7.632812 10.300781 7.632812 10.265625 7.628906 10.222656 C 7.585938 10.230469 7.550781 10.234375 7.523438 10.246094 C 6.839844 10.421875 6.210938 10.714844 5.621094 11.089844 C 5.03125 11.464844 4.484375 11.898438 3.976562 12.390625 C 3.085938 13.242188 2.277344 14.148438 1.730469 15.269531 C 1.460938 15.824219 1.222656 16.390625 1.109375 17.003906 C 0.941406 17.90625 0.824219 18.820312 0.820312 19.738281 C 0.8125 20.222656 0.894531 20.695312 1.050781 21.160156 C 1.253906 21.777344 1.578125 22.308594 2.144531 22.664062 C 2.75 23.039062 3.367188 23.394531 4.042969 23.640625 C 4.421875 23.773438 4.785156 23.941406 5.183594 23.996094 C 6.007812 24.125 6.835938 24.195312 7.675781 24.21875 C 7.953125 24.222656 8.234375 24.246094 8.5 24.1875 C 9.175781 24.042969 9.875 23.945312 10.476562 23.546875 C 10.5 23.53125 10.527344 23.523438 10.550781 23.507812 C 10.894531 23.316406 11.238281 23.125 11.574219 22.921875 C 12.117188 22.59375 12.640625 22.242188 13.1875 21.929688 C 13.960938 21.484375 14.761719 21.074219 15.496094 20.558594 C 16.9375 19.546875 18.371094 18.53125 19.816406 17.519531 C 20.355469 17.140625 20.910156 16.785156 21.460938 16.414062 C 22.03125 16.03125 22.671875 15.800781 23.296875 15.53125 C 24.480469 15.011719 25.707031 14.609375 26.925781 14.183594 C 27.621094 13.941406 28.320312 13.703125 29.035156 13.546875 C 29.101562 13.535156 29.167969 13.507812 29.226562 13.472656 C 29.3125 13.425781 29.3125 13.386719 29.238281 13.328125 C 29.089844 13.222656 28.945312 13.113281 28.78125 13.027344 C 28.566406 12.917969 28.335938 12.835938 28.113281 12.738281 C 27.335938 12.398438 26.546875 12.085938 25.722656 11.855469 C 24.527344 11.519531 23.308594 11.316406 22.070312 11.199219 C 21.984375 11.195312 21.898438 11.199219 21.816406 11.199219 C 21.816406 11.210938 21.8125 11.21875 21.8125 11.230469 C 21.839844 11.242188 21.863281 11.253906 21.890625 11.257812 C 22.054688 11.28125 22.167969 11.375 22.203125 11.535156 C 22.222656 11.632812 22.234375 11.746094 22.222656 11.84375 C 22.199219 12.113281 22.234375 12.378906 22.304688 12.640625 C 22.3125 12.679688 22.347656 12.726562 22.382812 12.75 C 22.546875 12.835938 22.644531 12.96875 22.683594 13.136719 C 22.71875 13.277344 22.714844 13.425781 22.726562 13.570312 C 22.742188 13.765625 22.757812 13.96875 22.769531 14.171875 C 22.804688 14.164062 22.828125 14.164062 22.847656 14.160156 C 23.046875 14.121094 23.246094 14.074219 23.449219 14.03125 C 23.835938 13.957031 24.222656 13.886719 24.609375 13.808594 C 24.875 13.75 25.136719 13.667969 25.40625 13.628906 C 26.035156 13.53125 26.671875 13.449219 27.300781 13.351562 C 27.546875 13.316406 27.789062 13.253906 28.03125 13.199219 C 28.03125 13.1875 28.03125 13.183594 28.035156 13.171875 C 27.210938 12.726562 26.324219 12.414062 25.425781 12.136719 C 25.433594 12.125 25.441406 12.121094 25.445312 12.121094 C 25.464844 12.121094 25.480469 12.121094 25.492188 12.125 C 26.238281 12.253906 26.96875 12.457031 27.667969 12.742188 C 27.835938 12.8125 28.007812 12.886719 28.140625 13.003906 C 28.25 13.097656 28.320312 13.199219 28.492188 13.097656 C 28.464844 13.210938 28.390625 13.222656 28.332031 13.242188 C 27.867188 13.390625 27.414062 13.558594 26.9375 13.667969 C 26.464844 13.777344 25.972656 13.832031 25.492188 13.917969 C 24.960938 14.015625 24.441406 14.132812 23.910156 14.21875 C 23.210938 14.332031 22.511719 14.472656 21.859375 14.761719 C 21.238281 15.03125 20.621094 15.292969 20.007812 15.578125 C 19.539062 15.796875 19.082031 16.050781 18.617188 16.265625 C 18.113281 16.496094 17.632812 16.777344 17.175781 17.097656 C 16.753906 17.390625 16.339844 17.691406 15.957031 18.039062 C 15.558594 18.390625 15.171875 18.753906 14.800781 19.136719 C 14.558594 19.390625 14.304688 19.628906 14.054688 19.875 C 13.714844 20.210938 13.355469 20.535156 13.039062 20.894531 C 12.507812 21.5 11.941406 22.078125 11.339844 22.621094 C 10.679688 23.21875 9.980469 23.742188 9.074219 23.886719 C 8.742188 23.941406 8.417969 24.003906 8.089844 23.953125 C 8.039062 23.945312 7.992188 23.929688 7.941406 23.917969 C 7.941406 23.90625 7.941406 23.894531 7.941406 23.882812 C 7.972656 23.875 8.007812 23.859375 8.042969 23.859375 C 8.375 23.847656 8.691406 23.785156 9.007812 23.695312 C 9.402344 23.59375 9.785156 23.464844 10.128906 23.242188 C 11.027344 22.644531 11.777344 21.894531 12.515625 21.117188 C 12.910156 20.703125 13.296875 20.28125 13.703125 19.871094 C 14.273438 19.28125 14.882812 18.699219 15.476562 18.113281 Z M 19.003906 12.898438 C 19.078125 12.773438 19.136719 12.644531 19.214844 12.535156 C 19.425781 12.265625 19.703125 12.144531 20.042969 12.199219 C 20.171875 12.21875 20.269531 12.289062 20.324219 12.402344 C 20.394531 12.542969 20.34375 12.640625 20.191406 12.65625 C 20.019531 12.675781 19.898438 12.773438 19.800781 12.898438 C 19.738281 12.988281 19.714844 13.085938 19.742188 13.195312 C 19.757812 13.269531 19.804688 13.304688 19.882812 13.308594 C 20.039062 13.316406 20.183594 13.28125 20.292969 13.167969 C 20.582031 12.867188 20.835938 12.546875 20.859375 12.101562 C 20.859375 12.078125 20.863281 12.050781 20.875 12.027344 C 20.914062 11.933594 20.945312 11.832031 21.003906 11.746094 C 21.09375 11.589844 21.25 11.566406 21.417969 11.570312 C 21.480469 11.570312 21.59375 11.554688 21.597656 11.53125 C 21.609375 11.445312 21.679688 11.375 21.65625 11.269531 C 21.558594 10.761719 21.441406 10.253906 21.390625 9.738281 C 21.285156 8.773438 21.222656 7.808594 21.125 6.84375 C 21.09375 6.546875 21.136719 6.230469 20.890625 5.988281 C 20.835938 5.929688 20.777344 5.867188 20.707031 5.835938 C 20.316406 5.675781 19.921875 5.511719 19.523438 5.375 C 19.117188 5.230469 18.703125 5.113281 18.273438 5.109375 C 17.394531 5.097656 16.585938 5.347656 15.859375 5.855469 C 15.160156 6.347656 14.414062 6.777344 13.644531 7.15625 C 12.765625 7.589844 11.816406 7.835938 10.851562 8 C 10.285156 8.089844 9.714844 8.144531 9.136719 8.136719 C 8.953125 8.136719 8.765625 8.121094 8.59375 8.039062 C 8.40625 7.953125 8.332031 7.832031 8.363281 7.644531 C 8.386719 7.484375 8.550781 7.316406 8.714844 7.300781 C 8.75 7.292969 8.789062 7.3125 8.828125 7.324219 C 8.828125 7.335938 8.828125 7.34375 8.828125 7.355469 C 8.808594 7.367188 8.777344 7.378906 8.753906 7.398438 C 8.691406 7.457031 8.621094 7.511719 8.582031 7.582031 C 8.519531 7.6875 8.550781 7.785156 8.667969 7.824219 C 8.789062 7.867188 8.921875 7.902344 9.042969 7.894531 C 9.367188 7.890625 9.691406 7.871094 10.015625 7.84375 C 11.09375 7.75 12.140625 7.484375 13.148438 7.074219 C 13.972656 6.738281 14.726562 6.246094 15.476562 5.769531 C 15.609375 5.679688 15.738281 5.582031 15.859375 5.496094 C 15.703125 5.445312 15.535156 5.410156 15.390625 5.328125 C 15.003906 5.113281 14.585938 4.988281 14.148438 4.925781 C 13.671875 4.855469 13.199219 4.808594 12.726562 4.929688 C 11.789062 5.171875 10.933594 5.578125 10.1875 6.195312 C 9.875 6.449219 9.546875 6.679688 9.199219 6.882812 C 8.90625 7.058594 8.617188 7.242188 8.320312 7.421875 C 8.117188 7.546875 7.996094 7.726562 7.957031 7.957031 C 7.933594 8.074219 7.917969 8.195312 7.910156 8.316406 C 7.898438 8.957031 7.898438 9.605469 7.875 10.246094 C 7.859375 10.761719 7.828125 11.269531 7.796875 11.785156 C 7.765625 12.222656 7.730469 12.664062 7.691406 13.101562 C 7.6875 13.175781 7.691406 13.234375 7.765625 13.289062 C 7.875 13.363281 7.90625 13.476562 7.882812 13.605469 C 7.863281 13.6875 7.847656 13.773438 7.824219 13.855469 C 7.726562 14.199219 7.800781 14.519531 8.003906 14.800781 C 8.125 14.96875 8.273438 15.101562 8.484375 15.144531 C 8.605469 15.164062 8.65625 15.101562 8.617188 14.988281 C 8.59375 14.921875 8.550781 14.859375 8.511719 14.800781 C 8.449219 14.710938 8.375 14.621094 8.320312 14.523438 C 8.210938 14.332031 8.253906 14.164062 8.4375 14.042969 C 8.539062 13.976562 8.644531 13.910156 8.75 13.847656 C 8.992188 13.703125 9.195312 13.511719 9.339844 13.265625 C 9.386719 13.1875 9.429688 13.113281 9.484375 13.042969 C 9.640625 12.84375 9.789062 12.847656 9.933594 13.0625 C 10.097656 13.300781 10.257812 13.53125 10.417969 13.765625 C 10.570312 13.988281 10.765625 14.15625 11.007812 14.257812 C 11.050781 14.277344 11.085938 14.300781 11.117188 14.320312 C 11.285156 14.4375 11.332031 14.609375 11.234375 14.789062 C 11.183594 14.882812 11.113281 14.964844 11.054688 15.054688 C 10.996094 15.148438 10.933594 15.242188 10.898438 15.34375 C 10.882812 15.402344 10.894531 15.496094 10.929688 15.542969 C 11.039062 15.675781 11.175781 15.761719 11.367188 15.738281 C 11.664062 15.699219 11.949219 15.640625 12.21875 15.511719 C 12.921875 15.171875 13.621094 14.832031 14.320312 14.484375 C 14.609375 14.339844 14.898438 14.28125 15.210938 14.363281 C 15.355469 14.402344 15.5 14.433594 15.640625 14.484375 C 16.0625 14.632812 16.5 14.652344 16.945312 14.65625 C 17.148438 14.664062 17.292969 14.570312 17.417969 14.433594 C 17.488281 14.355469 17.472656 14.199219 17.402344 14.136719 C 17.269531 14.015625 17.050781 14.015625 16.917969 14.136719 C 16.816406 14.230469 16.730469 14.234375 16.617188 14.160156 C 16.441406 14.050781 16.402344 13.898438 16.511719 13.722656 C 16.539062 13.667969 16.582031 13.621094 16.628906 13.578125 C 16.886719 13.308594 17.210938 13.195312 17.582031 13.210938 C 17.742188 13.21875 17.90625 13.265625 18.070312 13.292969 C 18.058594 13.089844 18.183594 12.933594 18.28125 12.765625 C 18.390625 12.578125 18.527344 12.546875 18.707031 12.679688 C 18.828125 12.75 18.914062 12.832031 19.003906 12.898438 Z M 21.8125 11.367188 C 21.8125 11.390625 21.8125 11.410156 21.816406 11.425781 C 21.882812 11.644531 21.769531 11.785156 21.539062 11.785156 C 21.476562 11.785156 21.414062 11.777344 21.34375 11.773438 C 21.246094 11.765625 21.179688 11.808594 21.148438 11.898438 C 21.128906 11.953125 21.105469 12.011719 21.101562 12.066406 C 21.089844 12.167969 21.09375 12.265625 21.070312 12.355469 C 20.984375 12.738281 20.765625 13.042969 20.5 13.320312 C 20.355469 13.472656 20.183594 13.546875 19.972656 13.558594 C 19.644531 13.578125 19.453125 13.367188 19.5 13.039062 C 19.535156 12.773438 19.714844 12.617188 19.925781 12.496094 C 19.949219 12.484375 19.980469 12.464844 20.027344 12.445312 C 19.816406 12.398438 19.648438 12.433594 19.492188 12.53125 C 19.308594 12.644531 19.171875 12.8125 19.070312 13.011719 C 19.003906 13.144531 18.914062 13.136719 18.816406 13.03125 C 18.75 12.957031 18.667969 12.886719 18.59375 12.824219 C 18.574219 12.808594 18.511719 12.808594 18.503906 12.820312 C 18.414062 12.988281 18.269531 13.132812 18.292969 13.351562 C 18.308594 13.5 18.234375 13.566406 18.089844 13.542969 C 17.996094 13.523438 17.90625 13.488281 17.804688 13.464844 C 17.425781 13.375 17.078125 13.4375 16.78125 13.710938 C 16.730469 13.761719 16.683594 13.824219 16.648438 13.886719 C 16.609375 13.964844 16.671875 14.011719 16.730469 14.042969 C 16.75 14.054688 16.800781 14.03125 16.8125 14.015625 C 16.917969 13.808594 17.332031 13.785156 17.492188 13.910156 C 17.609375 14.003906 17.679688 14.101562 17.695312 14.257812 C 17.730469 14.585938 17.308594 14.933594 17.03125 14.941406 C 16.5625 14.957031 16.105469 14.917969 15.660156 14.75 C 15.484375 14.679688 15.304688 14.621094 15.117188 14.566406 C 14.90625 14.496094 14.691406 14.523438 14.5 14.632812 C 14.140625 14.835938 13.789062 15.050781 13.429688 15.253906 C 13.140625 15.414062 12.847656 15.582031 12.546875 15.722656 C 12.351562 15.8125 12.128906 15.871094 11.921875 15.921875 C 11.640625 15.992188 11.351562 15.964844 11.0625 15.917969 C 10.753906 15.863281 10.582031 15.523438 10.71875 15.242188 C 10.789062 15.097656 10.898438 14.964844 10.992188 14.832031 C 11.128906 14.640625 11.117188 14.585938 10.910156 14.484375 C 10.679688 14.367188 10.484375 14.210938 10.34375 13.992188 C 10.195312 13.765625 10.050781 13.535156 9.90625 13.304688 C 9.871094 13.253906 9.835938 13.195312 9.808594 13.136719 C 9.765625 13.074219 9.726562 13.078125 9.691406 13.132812 C 9.644531 13.199219 9.59375 13.269531 9.550781 13.34375 C 9.390625 13.644531 9.152344 13.867188 8.851562 14.03125 C 8.753906 14.085938 8.652344 14.144531 8.558594 14.199219 C 8.4375 14.277344 8.414062 14.355469 8.496094 14.476562 C 8.550781 14.558594 8.621094 14.632812 8.679688 14.714844 C 8.742188 14.808594 8.808594 14.898438 8.839844 15 C 8.910156 15.199219 8.761719 15.386719 8.550781 15.367188 C 8.476562 15.363281 8.398438 15.34375 8.328125 15.316406 C 7.882812 15.132812 7.542969 14.558594 7.605469 14.078125 C 7.628906 13.921875 7.675781 13.765625 7.714844 13.617188 C 7.742188 13.511719 7.714844 13.4375 7.652344 13.355469 C 7.609375 13.304688 7.585938 13.246094 7.558594 13.1875 C 7.550781 13.234375 7.535156 13.300781 7.535156 13.363281 C 7.53125 13.507812 7.535156 13.644531 7.535156 13.789062 C 7.523438 14.375 7.507812 14.957031 7.496094 15.542969 C 7.496094 15.585938 7.496094 15.640625 7.476562 15.675781 C 7.441406 15.742188 7.460938 15.800781 7.496094 15.859375 C 7.742188 16.265625 8.074219 16.585938 8.507812 16.800781 C 8.882812 16.980469 9.285156 17.054688 9.695312 17.113281 C 10.546875 17.234375 11.402344 17.234375 12.25 17.207031 C 12.828125 17.183594 13.402344 17.101562 13.972656 17.03125 C 14.8125 16.929688 15.644531 16.773438 16.449219 16.523438 C 17.203125 16.289062 17.9375 15.980469 18.660156 15.65625 C 19.605469 15.242188 20.488281 14.726562 21.296875 14.089844 C 21.601562 13.847656 21.875 13.578125 22.035156 13.21875 C 22.070312 13.144531 22.078125 13.042969 22.058594 12.96875 C 21.980469 12.632812 21.921875 12.300781 21.972656 11.953125 C 21.992188 11.84375 21.996094 11.734375 21.996094 11.621094 C 22.003906 11.472656 21.933594 11.398438 21.8125 11.367188 Z M 7.269531 15.242188 C 7.257812 15.242188 7.246094 15.234375 7.242188 15.234375 C 7.210938 15.332031 7.183594 15.425781 7.160156 15.523438 C 7.109375 15.777344 7.0625 16.039062 7.003906 16.292969 C 6.941406 16.574219 6.992188 16.820312 7.207031 17.019531 C 8.03125 17.800781 9.015625 18.234375 10.148438 18.292969 C 10.882812 18.328125 11.621094 18.328125 12.355469 18.234375 C 13.308594 18.113281 14.269531 17.992188 15.222656 17.871094 C 15.394531 17.847656 15.570312 17.800781 15.742188 17.808594 C 15.859375 17.8125 15.9375 17.777344 16.019531 17.710938 C 16.152344 17.597656 16.28125 17.484375 16.414062 17.378906 C 16.679688 17.164062 16.9375 16.933594 17.222656 16.742188 C 17.570312 16.511719 17.933594 16.308594 18.320312 16.136719 C 19.015625 15.832031 19.679688 15.441406 20.382812 15.160156 C 20.9375 14.941406 21.476562 14.679688 22.019531 14.445312 C 22.175781 14.375 22.332031 14.320312 22.488281 14.265625 C 22.480469 14.195312 22.476562 14.136719 22.476562 14.078125 C 22.480469 13.84375 22.492188 13.605469 22.5 13.367188 C 22.503906 13.195312 22.464844 13.03125 22.335938 12.90625 C 22.367188 13.144531 22.257812 13.332031 22.136719 13.511719 C 21.957031 13.789062 21.730469 14.03125 21.476562 14.234375 C 20.925781 14.667969 20.347656 15.0625 19.730469 15.386719 C 19.269531 15.628906 18.792969 15.847656 18.316406 16.050781 C 17.742188 16.292969 17.171875 16.535156 16.574219 16.71875 C 15.464844 17.066406 14.308594 17.207031 13.152344 17.351562 C 12.34375 17.449219 11.527344 17.441406 10.714844 17.410156 C 10.242188 17.390625 9.765625 17.339844 9.304688 17.265625 C 8.683594 17.164062 8.128906 16.941406 7.695312 16.453125 C 7.402344 16.121094 7.257812 15.753906 7.261719 15.316406 C 7.269531 15.296875 7.269531 15.269531 7.269531 15.242188 Z M 2.507812 18.339844 C 2.507812 18.304688 2.511719 18.269531 2.511719 18.242188 C 2.53125 18.066406 2.53125 17.886719 2.570312 17.71875 C 2.667969 17.28125 2.785156 16.84375 2.894531 16.402344 C 2.917969 16.304688 2.953125 16.210938 2.976562 16.113281 C 2.980469 16.074219 2.964844 16.027344 2.953125 15.980469 C 2.910156 16.007812 2.863281 16.027344 2.84375 16.066406 C 2.808594 16.121094 2.785156 16.183594 2.765625 16.246094 C 2.679688 16.609375 2.585938 16.96875 2.511719 17.332031 C 2.449219 17.640625 2.414062 17.945312 2.453125 18.257812 C 2.460938 18.285156 2.464844 18.316406 2.472656 18.34375 C 2.488281 18.339844 2.5 18.339844 2.507812 18.339844 Z M 3.148438 17.628906 C 3.171875 17.519531 3.1875 17.410156 3.210938 17.292969 C 3.316406 16.738281 3.5 16.207031 3.742188 15.691406 C 3.761719 15.65625 3.742188 15.609375 3.742188 15.570312 C 3.703125 15.582031 3.65625 15.59375 3.617188 15.609375 C 3.59375 15.621094 3.574219 15.65625 3.566406 15.679688 C 3.507812 15.820312 3.4375 15.953125 3.390625 16.089844 C 3.230469 16.554688 3.132812 17.027344 3.113281 17.511719 C 3.113281 17.554688 3.125 17.585938 3.132812 17.628906 C 3.144531 17.628906 3.148438 17.628906 3.148438 17.628906 Z M 3.910156 16.824219 C 3.953125 16.726562 3.980469 16.617188 4.03125 16.523438 C 4.1875 16.246094 4.355469 15.96875 4.523438 15.699219 C 4.535156 15.679688 4.554688 15.664062 4.558594 15.640625 C 4.566406 15.609375 4.566406 15.582031 4.566406 15.554688 C 4.53125 15.558594 4.496094 15.554688 4.472656 15.566406 C 4.4375 15.582031 4.414062 15.617188 4.390625 15.644531 C 4.171875 15.964844 4.003906 16.308594 3.894531 16.6875 C 3.882812 16.726562 3.882812 16.773438 3.875 16.820312 C 3.886719 16.820312 3.898438 16.820312 3.910156 16.824219 Z M 16.996094 17.796875 C 17.148438 17.679688 17.304688 17.570312 17.449219 17.449219 C 17.472656 17.429688 17.472656 17.386719 17.484375 17.351562 C 17.449219 17.351562 17.402344 17.332031 17.378906 17.351562 C 17.246094 17.464844 17.113281 17.582031 16.984375 17.703125 C 16.96875 17.71875 16.96875 17.75 16.960938 17.777344 C 16.972656 17.785156 16.984375 17.789062 16.996094 17.796875 Z M 12.789062 21.59375 C 12.753906 21.59375 12.714844 21.59375 12.691406 21.609375 C 12.582031 21.71875 12.472656 21.828125 12.367188 21.941406 C 12.351562 21.957031 12.351562 21.996094 12.34375 22.027344 C 12.375 22.019531 12.414062 22.027344 12.429688 22.007812 C 12.546875 21.910156 12.660156 21.8125 12.777344 21.714844 C 12.796875 21.695312 12.804688 21.667969 12.824219 21.640625 C 12.804688 21.621094 12.796875 21.59375 12.789062 21.59375 Z M 16.019531 18.535156 C 16.039062 18.523438 16.039062 18.472656 16.027344 18.460938 C 16.015625 18.441406 15.96875 18.4375 15.949219 18.449219 C 15.773438 18.554688 15.640625 18.699219 15.550781 18.886719 C 15.550781 18.894531 15.558594 18.898438 15.570312 18.933594 C 15.726562 18.796875 15.875 18.664062 16.019531 18.535156 Z M 16.292969 18.28125 C 16.441406 18.195312 16.59375 18.101562 16.738281 18.007812 C 16.765625 17.992188 16.777344 17.945312 16.792969 17.910156 C 16.753906 17.90625 16.707031 17.886719 16.683594 17.90625 C 16.546875 17.996094 16.40625 18.101562 16.269531 18.199219 C 16.25 18.210938 16.246094 18.246094 16.222656 18.292969 C 16.269531 18.285156 16.285156 18.285156 16.292969 18.28125 Z M 23.601562 14.664062 C 23.734375 14.644531 23.875 14.628906 24.007812 14.605469 C 24.058594 14.597656 24.117188 14.585938 24.167969 14.566406 C 24.199219 14.554688 24.214844 14.519531 24.234375 14.496094 C 24.203125 14.476562 24.179688 14.453125 24.148438 14.445312 C 24.128906 14.4375 24.105469 14.4375 24.089844 14.445312 C 23.945312 14.488281 23.800781 14.53125 23.65625 14.582031 C 23.632812 14.59375 23.609375 14.617188 23.585938 14.632812 C 23.589844 14.644531 23.597656 14.65625 23.601562 14.664062 Z M 21.871094 15.125 C 21.851562 15.136719 21.828125 15.148438 21.816406 15.164062 C 21.804688 15.175781 21.800781 15.195312 21.804688 15.207031 C 21.8125 15.21875 21.835938 15.230469 21.847656 15.222656 C 22.007812 15.175781 22.171875 15.136719 22.332031 15.085938 C 22.355469 15.078125 22.371094 15.03125 22.390625 15.011719 C 22.359375 14.988281 22.332031 14.96875 22.292969 14.941406 C 22.148438 15.003906 22.007812 15.0625 21.871094 15.125 Z M 17.738281 17.199219 C 17.886719 17.125 18.039062 17.050781 18.1875 16.964844 C 18.214844 16.945312 18.226562 16.894531 18.25 16.859375 C 18.210938 16.855469 18.160156 16.824219 18.128906 16.84375 C 17.996094 16.929688 17.875 17.019531 17.75 17.121094 C 17.730469 17.132812 17.726562 17.160156 17.71875 17.183594 C 17.726562 17.1875 17.730469 17.195312 17.738281 17.199219 Z M 20.183594 15.953125 C 20.359375 15.886719 20.535156 15.824219 20.714844 15.753906 C 20.730469 15.75 20.753906 15.710938 20.75 15.6875 C 20.742188 15.667969 20.707031 15.652344 20.683594 15.644531 C 20.65625 15.640625 20.625 15.644531 20.597656 15.65625 C 20.46875 15.722656 20.34375 15.789062 20.214844 15.863281 C 20.191406 15.875 20.183594 15.90625 20.160156 15.921875 C 20.164062 15.933594 20.171875 15.945312 20.183594 15.953125 Z M 22.746094 14.859375 C 22.738281 14.867188 22.730469 14.894531 22.738281 14.910156 C 22.738281 14.917969 22.765625 14.929688 22.777344 14.929688 C 22.914062 14.886719 23.058594 14.855469 23.191406 14.808594 C 23.214844 14.800781 23.238281 14.753906 23.234375 14.730469 C 23.226562 14.703125 23.1875 14.6875 23.148438 14.652344 C 23.015625 14.714844 22.878906 14.785156 22.746094 14.859375 Z M 19.09375 16.464844 C 19.117188 16.453125 19.136719 16.414062 19.152344 16.390625 C 19.117188 16.378906 19.078125 16.351562 19.054688 16.355469 C 18.894531 16.449219 18.742188 16.546875 18.585938 16.644531 C 18.574219 16.652344 18.574219 16.675781 18.5625 16.703125 C 18.753906 16.617188 18.925781 16.546875 19.09375 16.464844 Z M 21.355469 15.5 C 21.414062 15.488281 21.476562 15.476562 21.535156 15.453125 C 21.558594 15.441406 21.574219 15.410156 21.582031 15.378906 C 21.582031 15.367188 21.539062 15.332031 21.515625 15.332031 C 21.34375 15.34375 21.179688 15.402344 21.042969 15.507812 C 21.03125 15.511719 21.03125 15.535156 21.015625 15.566406 C 21.140625 15.546875 21.246094 15.523438 21.355469 15.5 Z M 19.992188 16.015625 C 20.003906 16.003906 20.003906 15.976562 20.007812 15.957031 C 19.980469 15.953125 19.945312 15.933594 19.925781 15.945312 C 19.777344 16.019531 19.632812 16.109375 19.488281 16.1875 C 19.476562 16.195312 19.476562 16.210938 19.453125 16.253906 C 19.65625 16.1875 19.835938 16.125 19.992188 16.015625 Z M 13.082031 21.355469 C 13.195312 21.261719 13.304688 21.175781 13.40625 21.078125 C 13.417969 21.066406 13.425781 21.007812 13.40625 21.003906 C 13.382812 20.984375 13.339844 20.980469 13.320312 20.992188 C 13.222656 21.089844 13.128906 21.195312 13.039062 21.296875 C 13.027344 21.308594 13.042969 21.34375 13.042969 21.367188 C 13.066406 21.355469 13.078125 21.355469 13.082031 21.355469 Z M 14.03125 20.464844 C 14.042969 20.449219 14.042969 20.402344 14.03125 20.398438 C 14.015625 20.386719 13.96875 20.378906 13.957031 20.390625 C 13.847656 20.507812 13.742188 20.621094 13.640625 20.742188 C 13.632812 20.75 13.640625 20.765625 13.640625 20.800781 C 13.792969 20.703125 13.933594 20.605469 14.03125 20.464844 Z M 11.703125 22.644531 C 11.828125 22.574219 11.960938 22.519531 12.066406 22.40625 C 12.089844 22.386719 12.085938 22.339844 12.089844 22.304688 C 12.050781 22.304688 12.003906 22.292969 11.980469 22.308594 C 11.886719 22.386719 11.796875 22.472656 11.707031 22.558594 C 11.695312 22.570312 11.691406 22.59375 11.679688 22.617188 C 11.691406 22.621094 11.695312 22.632812 11.703125 22.644531 Z M 26.433594 14.066406 C 26.445312 14.0625 26.464844 14.027344 26.457031 14.011719 C 26.453125 13.992188 26.429688 13.96875 26.40625 13.964844 C 26.332031 13.941406 26.066406 14.050781 26.003906 14.144531 C 26.167969 14.160156 26.300781 14.125 26.433594 14.066406 Z M 25.667969 14.253906 C 25.695312 14.246094 25.714844 14.207031 25.742188 14.183594 C 25.714844 14.164062 25.671875 14.125 25.648438 14.136719 C 25.539062 14.160156 25.429688 14.199219 25.320312 14.234375 C 25.308594 14.242188 25.300781 14.257812 25.28125 14.300781 C 25.425781 14.28125 25.546875 14.269531 25.667969 14.253906 Z M 14.679688 19.742188 C 14.691406 19.726562 14.671875 19.699219 14.671875 19.675781 C 14.648438 19.679688 14.617188 19.675781 14.605469 19.691406 C 14.515625 19.789062 14.4375 19.894531 14.355469 19.996094 C 14.34375 20.007812 14.351562 20.039062 14.339844 20.089844 C 14.484375 19.980469 14.59375 19.875 14.679688 19.742188 Z M 24.824219 14.421875 C 24.878906 14.410156 24.933594 14.390625 24.992188 14.367188 C 25.007812 14.363281 25.019531 14.332031 25.019531 14.316406 C 25.019531 14.304688 24.996094 14.28125 24.984375 14.28125 C 24.902344 14.253906 24.636719 14.355469 24.570312 14.460938 C 24.667969 14.445312 24.742188 14.4375 24.824219 14.421875 Z M 15.320312 19.148438 C 15.328125 19.136719 15.320312 19.109375 15.308594 19.097656 C 15.296875 19.085938 15.269531 19.085938 15.257812 19.097656 C 15.128906 19.175781 15.050781 19.296875 14.980469 19.425781 C 15.117188 19.367188 15.234375 19.273438 15.320312 19.148438 Z M 26.800781 13.96875 C 26.933594 13.964844 27.046875 14 27.167969 13.90625 C 27.066406 13.84375 26.878906 13.875 26.800781 13.96875 Z M 27.429688 13.875 C 27.503906 13.867188 27.574219 13.859375 27.648438 13.847656 C 27.660156 13.847656 27.679688 13.8125 27.679688 13.796875 C 27.679688 13.785156 27.648438 13.761719 27.636719 13.765625 C 27.5625 13.785156 27.492188 13.8125 27.417969 13.835938 C 27.421875 13.847656 27.421875 13.859375 27.429688 13.875 Z M 19.515625 10.3125 C 19.492188 10.339844 19.464844 10.363281 19.453125 10.390625 C 19.371094 10.589844 19.359375 10.789062 19.453125 10.988281 C 19.597656 11.292969 19.949219 11.316406 20.136719 11.035156 C 20.269531 10.832031 20.257812 10.609375 20.171875 10.390625 C 20.09375 10.199219 19.859375 10.089844 19.660156 10.160156 C 19.605469 10.183594 19.546875 10.21875 19.574219 10.289062 C 19.585938 10.324219 19.65625 10.332031 19.695312 10.34375 C 19.71875 10.351562 19.757812 10.328125 19.78125 10.339844 C 19.847656 10.363281 19.925781 10.378906 19.957031 10.421875 C 20.042969 10.570312 20.042969 10.738281 19.945312 10.890625 C 19.851562 11.035156 19.714844 11.035156 19.613281 10.894531 C 19.527344 10.765625 19.492188 10.621094 19.515625 10.46875 C 19.523438 10.414062 19.535156 10.367188 19.539062 10.316406 C 19.539062 10.324219 19.527344 10.316406 19.515625 10.3125 Z M 17.222656 11.472656 C 17.058594 11.632812 17.027344 11.988281 17.160156 12.171875 C 17.261719 12.316406 17.414062 12.375 17.585938 12.355469 C 17.753906 12.339844 17.824219 12.21875 17.871094 12.074219 C 17.9375 11.867188 17.914062 11.667969 17.800781 11.476562 C 17.71875 11.351562 17.605469 11.292969 17.460938 11.304688 C 17.390625 11.3125 17.332031 11.332031 17.328125 11.410156 C 17.328125 11.496094 17.402344 11.484375 17.453125 11.484375 C 17.546875 11.476562 17.597656 11.523438 17.644531 11.605469 C 17.714844 11.746094 17.707031 11.886719 17.660156 12.027344 C 17.621094 12.15625 17.550781 12.1875 17.425781 12.148438 C 17.261719 12.097656 17.171875 11.917969 17.203125 11.722656 C 17.222656 11.632812 17.246094 11.546875 17.269531 11.449219 C 17.246094 11.460938 17.234375 11.460938 17.222656 11.472656 Z M 18.992188 7.132812 C 18.949219 7.148438 18.90625 7.15625 18.871094 7.179688 C 18.535156 7.339844 18.199219 7.5 17.871094 7.667969 C 17.574219 7.820312 17.292969 7.992188 17.007812 8.15625 C 16.96875 8.179688 16.921875 8.207031 16.894531 8.242188 C 16.875 8.269531 16.863281 8.328125 16.882812 8.351562 C 16.898438 8.375 16.957031 8.375 16.992188 8.367188 C 17.019531 8.363281 17.042969 8.335938 17.070312 8.316406 C 17.511719 8.039062 17.945312 7.761719 18.390625 7.488281 C 18.59375 7.367188 18.800781 7.257812 19.007812 7.148438 C 18.992188 7.144531 18.992188 7.136719 18.992188 7.132812 Z M 19.390625 6.347656 C 19.332031 6.363281 19.273438 6.378906 19.222656 6.402344 C 18.765625 6.605469 18.304688 6.808594 17.851562 7.023438 C 17.636719 7.121094 17.4375 7.242188 17.226562 7.355469 C 17.183594 7.386719 17.125 7.421875 17.164062 7.484375 C 17.203125 7.554688 17.261719 7.5 17.308594 7.472656 C 17.972656 7.066406 18.660156 6.703125 19.371094 6.386719 C 19.382812 6.378906 19.394531 6.367188 19.40625 6.363281 C 19.394531 6.355469 19.394531 6.351562 19.390625 6.347656 Z M 10.328125 11.617188 C 10.355469 11.628906 10.390625 11.632812 10.417969 11.640625 C 10.472656 11.652344 10.527344 11.664062 10.546875 11.59375 C 10.5625 11.523438 10.496094 11.523438 10.453125 11.511719 C 10.148438 11.410156 9.828125 11.3125 9.53125 11.195312 C 9.230469 11.078125 8.941406 10.933594 8.644531 10.808594 C 9.183594 11.113281 9.730469 11.421875 10.328125 11.617188 Z M 11.183594 6.613281 C 11.472656 6.402344 11.765625 6.191406 12.054688 5.980469 C 12.078125 5.964844 12.101562 5.957031 12.117188 5.933594 C 12.136719 5.90625 12.148438 5.878906 12.160156 5.847656 C 12.125 5.835938 12.089844 5.832031 12.054688 5.820312 C 12.050781 5.820312 12.039062 5.824219 12.027344 5.832031 C 11.679688 6 11.390625 6.242188 11.152344 6.546875 C 11.136719 6.570312 11.128906 6.601562 11.105469 6.652344 C 11.152344 6.628906 11.171875 6.625 11.183594 6.613281 Z M 8.558594 11.523438 C 8.640625 11.578125 8.71875 11.632812 8.808594 11.675781 C 9.164062 11.855469 9.519531 12.039062 9.882812 12.199219 C 10.085938 12.292969 10.292969 12.355469 10.5 12.425781 C 10.539062 12.4375 10.628906 12.425781 10.632812 12.410156 C 10.65625 12.328125 10.574219 12.34375 10.535156 12.328125 C 10.164062 12.1875 9.789062 12.066406 9.425781 11.917969 C 9.128906 11.796875 8.851562 11.644531 8.570312 11.511719 C 8.5625 11.519531 8.558594 11.523438 8.558594 11.523438 Z M 19.96875 10.644531 C 19.949219 10.589844 19.945312 10.511719 19.902344 10.46875 C 19.871094 10.425781 19.804688 10.386719 19.753906 10.386719 C 19.707031 10.386719 19.65625 10.445312 19.632812 10.488281 C 19.605469 10.535156 19.597656 10.601562 19.597656 10.65625 C 19.59375 10.796875 19.65625 10.898438 19.757812 10.90625 C 19.863281 10.917969 19.933594 10.832031 19.949219 10.6875 C 19.949219 10.675781 19.949219 10.664062 19.957031 10.644531 C 19.960938 10.644531 19.960938 10.644531 19.96875 10.644531 Z M 12.570312 6 C 12.660156 5.945312 12.765625 5.90625 12.859375 5.859375 C 12.882812 5.847656 12.894531 5.8125 12.910156 5.785156 C 12.886719 5.769531 12.859375 5.75 12.835938 5.738281 C 12.816406 5.734375 12.789062 5.738281 12.765625 5.746094 C 12.460938 5.867188 12.171875 6.023438 11.945312 6.265625 C 11.921875 6.289062 11.910156 6.328125 11.894531 6.363281 C 12.125 6.234375 12.351562 6.113281 12.570312 6 Z M 17.574219 11.628906 C 17.515625 11.519531 17.414062 11.511719 17.332031 11.605469 C 17.269531 11.679688 17.285156 11.765625 17.308594 11.855469 C 17.34375 11.96875 17.40625 12.023438 17.492188 12.011719 C 17.574219 12 17.625 11.921875 17.632812 11.808594 C 17.617188 11.75 17.605469 11.6875 17.574219 11.628906 Z M 9.714844 10.6875 C 9.730469 10.691406 9.753906 10.703125 9.773438 10.699219 C 9.808594 10.691406 9.847656 10.675781 9.882812 10.664062 C 9.851562 10.640625 9.835938 10.601562 9.800781 10.589844 C 9.621094 10.519531 9.441406 10.457031 9.269531 10.378906 C 9.03125 10.277344 8.800781 10.15625 8.570312 10.039062 C 8.929688 10.292969 9.296875 10.53125 9.714844 10.6875 Z M 17.839844 8.277344 C 17.824219 8.28125 17.800781 8.28125 17.78125 8.292969 C 17.488281 8.484375 17.199219 8.675781 16.910156 8.871094 C 16.863281 8.902344 16.828125 8.945312 16.800781 8.992188 C 16.789062 9.015625 16.804688 9.054688 16.8125 9.085938 C 16.839844 9.074219 16.875 9.074219 16.894531 9.054688 C 17.160156 8.773438 17.472656 8.546875 17.792969 8.335938 C 17.8125 8.324219 17.835938 8.304688 17.851562 8.289062 C 17.847656 8.289062 17.839844 8.28125 17.839844 8.277344 Z M 10.464844 6.769531 C 10.691406 6.601562 10.910156 6.425781 11.136719 6.257812 C 11.183594 6.222656 11.234375 6.183594 11.28125 6.144531 C 11.292969 6.136719 11.304688 6.125 11.308594 6.113281 C 11.316406 6.097656 11.320312 6.074219 11.320312 6.058594 C 11.296875 6.050781 11.273438 6.046875 11.257812 6.050781 C 11.210938 6.074219 11.171875 6.097656 11.136719 6.125 C 10.972656 6.257812 10.8125 6.398438 10.65625 6.535156 C 10.582031 6.605469 10.519531 6.679688 10.441406 6.757812 C 10.453125 6.757812 10.460938 6.761719 10.464844 6.769531 Z M 12.789062 6.207031 C 12.933594 6.144531 13.082031 6.078125 13.226562 6.015625 C 13.25 6.003906 13.269531 5.96875 13.285156 5.941406 C 13.25 5.933594 13.21875 5.917969 13.1875 5.929688 C 13.0625 5.988281 12.941406 6.050781 12.816406 6.121094 C 12.796875 6.132812 12.785156 6.167969 12.765625 6.191406 C 12.777344 6.191406 12.785156 6.195312 12.789062 6.207031 Z M 12.929688 7.882812 C 12.949219 7.878906 12.957031 7.824219 12.96875 7.796875 C 12.941406 7.785156 12.910156 7.757812 12.886719 7.769531 C 12.789062 7.796875 12.695312 7.835938 12.605469 7.878906 C 12.585938 7.882812 12.574219 7.917969 12.574219 7.929688 C 12.582031 7.941406 12.605469 7.953125 12.628906 7.964844 C 12.730469 7.941406 12.828125 7.917969 12.929688 7.882812 Z M 11.574219 8.222656 C 11.597656 8.21875 11.609375 8.179688 11.621094 8.15625 C 11.597656 8.144531 11.574219 8.113281 11.550781 8.113281 C 11.472656 8.125 11.394531 8.144531 11.320312 8.167969 C 11.292969 8.179688 11.269531 8.210938 11.238281 8.234375 C 11.273438 8.253906 11.304688 8.269531 11.332031 8.289062 C 11.425781 8.265625 11.507812 8.253906 11.574219 8.222656 Z M 10.484375 8.375 C 10.609375 8.410156 10.738281 8.390625 10.859375 8.367188 C 10.875 8.363281 10.886719 8.335938 10.90625 8.3125 C 10.882812 8.292969 10.859375 8.265625 10.839844 8.265625 C 10.742188 8.269531 10.652344 8.289062 10.550781 8.300781 C 10.523438 8.304688 10.5 8.324219 10.472656 8.335938 C 10.472656 8.351562 10.476562 8.363281 10.484375 8.375 Z M 14.113281 7.316406 C 14.128906 7.304688 14.136719 7.265625 14.128906 7.246094 C 14.125 7.230469 14.082031 7.21875 14.066406 7.222656 C 13.984375 7.265625 13.910156 7.3125 13.835938 7.363281 C 13.824219 7.367188 13.816406 7.398438 13.824219 7.414062 C 13.828125 7.425781 13.851562 7.433594 13.882812 7.449219 C 13.957031 7.410156 14.039062 7.367188 14.113281 7.316406 Z M 12.195312 8.101562 C 12.21875 8.089844 12.222656 8.050781 12.238281 8.023438 C 12.210938 8.011719 12.183594 7.980469 12.160156 7.988281 C 12.09375 8.003906 12.03125 8.035156 11.972656 8.0625 C 11.957031 8.066406 11.949219 8.109375 11.949219 8.125 C 11.949219 8.136719 11.984375 8.148438 12.003906 8.160156 C 12.066406 8.136719 12.136719 8.125 12.195312 8.101562 Z M 9.085938 8.402344 C 9.074219 8.402344 9.054688 8.421875 9.050781 8.433594 C 9.050781 8.445312 9.0625 8.46875 9.066406 8.472656 C 9.160156 8.484375 9.25 8.496094 9.34375 8.5 C 9.363281 8.5 9.386719 8.46875 9.386719 8.449219 C 9.386719 8.433594 9.355469 8.402344 9.339844 8.398438 C 9.304688 8.386719 9.261719 8.390625 9.222656 8.386719 C 9.183594 8.386719 9.136719 8.390625 9.085938 8.402344 Z M 16.050781 6.101562 C 16.066406 6.089844 16.070312 6.0625 16.078125 6.039062 C 16.078125 6.035156 16.054688 6.015625 16.042969 6.015625 C 15.957031 6.003906 15.789062 6.136719 15.761719 6.257812 C 15.871094 6.203125 15.960938 6.15625 16.050781 6.101562 Z M 10.148438 8.457031 C 10.171875 8.445312 10.183594 8.410156 10.207031 8.386719 C 10.183594 8.375 10.152344 8.351562 10.125 8.351562 C 10.097656 8.34375 10.0625 8.351562 10.03125 8.363281 C 9.980469 8.378906 9.933594 8.402344 9.882812 8.421875 C 9.933594 8.445312 9.984375 8.46875 10.019531 8.484375 C 10.078125 8.472656 10.117188 8.472656 10.148438 8.457031 Z M 16.570312 5.800781 C 16.582031 5.796875 16.585938 5.769531 16.585938 5.75 C 16.582031 5.738281 16.558594 5.722656 16.539062 5.722656 C 16.460938 5.710938 16.292969 5.84375 16.273438 5.957031 C 16.378906 5.90625 16.476562 5.855469 16.570312 5.800781 Z M 17.175781 5.460938 C 17.285156 5.421875 17.390625 5.386719 17.5 5.347656 C 17.515625 5.339844 17.527344 5.3125 17.539062 5.289062 C 17.515625 5.277344 17.488281 5.253906 17.472656 5.257812 C 17.347656 5.289062 17.246094 5.347656 17.160156 5.433594 C 17.171875 5.4375 17.175781 5.449219 17.175781 5.460938 Z M 14.789062 6.867188 C 14.875 6.800781 14.960938 6.746094 15.050781 6.679688 C 15.0625 6.675781 15.066406 6.644531 15.0625 6.628906 C 15.0625 6.617188 15.039062 6.605469 15.027344 6.605469 C 14.957031 6.601562 14.785156 6.761719 14.765625 6.835938 C 14.773438 6.847656 14.777344 6.855469 14.789062 6.867188 Z M 8.414062 8.230469 C 8.460938 8.316406 8.539062 8.351562 8.632812 8.378906 C 8.664062 8.386719 8.695312 8.367188 8.726562 8.355469 C 8.707031 8.328125 8.691406 8.28125 8.667969 8.269531 C 8.59375 8.242188 8.511719 8.222656 8.429688 8.199219 C 8.425781 8.210938 8.417969 8.21875 8.414062 8.230469 Z M 8.199219 8.0625 C 8.21875 8.074219 8.246094 8.078125 8.269531 8.078125 C 8.273438 8.078125 8.292969 8.046875 8.285156 8.035156 C 8.246094 7.945312 8.207031 7.855469 8.160156 7.757812 C 8.109375 7.859375 8.128906 8.011719 8.199219 8.0625 Z M 13.496094 7.652344 C 13.511719 7.644531 13.523438 7.605469 13.515625 7.589844 C 13.511719 7.570312 13.472656 7.554688 13.453125 7.566406 C 13.382812 7.601562 13.316406 7.640625 13.246094 7.679688 C 13.238281 7.6875 13.234375 7.710938 13.238281 7.722656 C 13.246094 7.734375 13.261719 7.738281 13.285156 7.75 C 13.355469 7.714844 13.425781 7.691406 13.496094 7.652344 Z M 17.019531 5.542969 C 17.03125 5.535156 17.050781 5.5 17.042969 5.492188 C 17.039062 5.472656 17.007812 5.460938 16.992188 5.460938 C 16.917969 5.457031 16.777344 5.570312 16.742188 5.675781 C 16.847656 5.625 16.933594 5.582031 17.019531 5.542969 Z M 15.246094 6.566406 C 15.320312 6.519531 15.394531 6.480469 15.472656 6.425781 C 15.484375 6.421875 15.488281 6.378906 15.484375 6.367188 C 15.476562 6.355469 15.441406 6.347656 15.425781 6.351562 C 15.339844 6.386719 15.257812 6.445312 15.214844 6.53125 C 15.226562 6.542969 15.238281 6.554688 15.246094 6.566406 Z M 14.523438 6.945312 C 14.488281 6.957031 14.441406 6.96875 14.417969 6.992188 C 14.382812 7.027344 14.355469 7.078125 14.328125 7.125 C 14.371094 7.113281 14.425781 7.101562 14.472656 7.078125 C 14.511719 7.058594 14.539062 7.023438 14.59375 6.976562 C 14.558594 6.957031 14.535156 6.941406 14.523438 6.945312 Z M 18.019531 5.289062 C 18.039062 5.289062 18.058594 5.265625 18.066406 5.253906 C 18.070312 5.242188 18.050781 5.207031 18.03125 5.207031 C 17.949219 5.195312 17.875 5.195312 17.792969 5.269531 C 17.886719 5.277344 17.957031 5.28125 18.019531 5.289062 Z M 14.992188 16.210938 C 14.761719 16.210938 14.597656 16.019531 14.660156 15.796875 C 14.695312 15.6875 14.75 15.578125 14.816406 15.476562 C 14.90625 15.355469 15.125 15.363281 15.257812 15.472656 C 15.371094 15.570312 15.414062 15.765625 15.351562 15.945312 C 15.285156 16.113281 15.160156 16.210938 14.992188 16.210938 Z M 14.824219 15.832031 C 14.824219 15.929688 14.882812 15.988281 14.972656 15.988281 C 15.070312 15.988281 15.152344 15.882812 15.152344 15.753906 C 15.152344 15.664062 15.09375 15.597656 15.015625 15.605469 C 14.917969 15.617188 14.824219 15.722656 14.824219 15.832031 Z M 19.535156 14.449219 C 19.511719 14.597656 19.4375 14.742188 19.28125 14.835938 C 19.183594 14.894531 19.078125 14.875 18.984375 14.820312 C 18.875 14.742188 18.804688 14.632812 18.816406 14.5 C 18.835938 14.304688 18.972656 14.1875 19.117188 14.085938 C 19.140625 14.066406 19.183594 14.066406 19.210938 14.066406 C 19.367188 14.074219 19.539062 14.269531 19.535156 14.449219 Z M 19.285156 14.425781 C 19.285156 14.367188 19.214844 14.300781 19.160156 14.304688 C 19.03125 14.316406 18.984375 14.355469 18.984375 14.472656 C 18.984375 14.558594 19.054688 14.644531 19.125 14.644531 C 19.183594 14.644531 19.285156 14.507812 19.285156 14.425781 Z M 21.9375 12.824219 C 21.933594 12.933594 21.902344 13.054688 21.8125 13.148438 C 21.707031 13.253906 21.558594 13.277344 21.453125 13.210938 C 21.355469 13.148438 21.304688 12.992188 21.355469 12.867188 C 21.394531 12.773438 21.453125 12.679688 21.515625 12.605469 C 21.59375 12.511719 21.695312 12.496094 21.789062 12.535156 C 21.886719 12.570312 21.9375 12.664062 21.9375 12.824219 Z M 21.683594 12.742188 C 21.539062 12.753906 21.464844 12.855469 21.511719 12.980469 C 21.535156 13.039062 21.5625 13.042969 21.613281 13.011719 C 21.691406 12.957031 21.71875 12.835938 21.683594 12.742188 Z M 21.683594 12.742188 " fill-opacity="1" fill-rule="nonzero"/></g></svg>