<svg xmlns="http://www.w3.org/2000/svg" xmlns:xlink="http://www.w3.org/1999/xlink" width="40" zoomAndPan="magnify" viewBox="0 0 30 30.000001" height="40" preserveAspectRatio="xMidYMid meet" version="1.0"><defs><clipPath id="982702e910"><path d="M 0.484375 7 L 29.515625 7 L 29.515625 22.15625 L 0.484375 22.15625 Z M 0.484375 7 " clip-rule="nonzero"/></clipPath></defs><g clip-path="url(#982702e910)"><path fill="#ffffff" d="M 29.472656 13.003906 C 28.761719 12.628906 28.007812 12.382812 27.214844 12.269531 C 26.738281 12.199219 26.191406 12.207031 25.714844 12.242188 C 24.238281 12.339844 22.730469 12.675781 21.292969 13.039062 C 21.28125 13.039062 21.269531 13.03125 21.269531 13.019531 C 21.085938 11.703125 20.917969 10.535156 20.660156 9.078125 C 20.398438 7.585938 19.046875 6.910156 17.648438 7.054688 C 16.414062 7.179688 15.128906 7.75 14.050781 8.371094 C 12.503906 9.257812 10.738281 10.394531 8.867188 9.664062 C 8.859375 9.664062 8.851562 9.660156 8.84375 9.652344 C 8.835938 9.644531 8.824219 9.636719 8.8125 9.632812 C 8.808594 9.632812 8.804688 9.625 8.804688 9.621094 C 8.808594 9.617188 8.8125 9.613281 8.816406 9.617188 C 10.53125 9.839844 11.980469 9.007812 13.40625 8.179688 C 13.40625 8.175781 13.40625 8.175781 13.410156 8.171875 C 13.410156 8.167969 13.40625 8.160156 13.402344 8.160156 C 12.882812 8.027344 12.363281 7.898438 11.839844 7.78125 C 10.933594 7.574219 9.960938 7.460938 9.082031 7.835938 C 8.464844 8.101562 8.074219 8.679688 7.9375 9.320312 C 7.828125 9.832031 7.738281 10.644531 7.671875 11.308594 C 7.519531 12.808594 7.371094 14.308594 7.230469 15.8125 C 7.226562 15.824219 7.234375 15.832031 7.246094 15.835938 C 7.429688 15.890625 7.660156 15.941406 7.933594 15.996094 C 9.277344 16.261719 10.652344 16.375 12.003906 16.28125 C 13.289062 16.191406 14.550781 15.960938 15.789062 15.589844 C 15.839844 15.574219 15.945312 15.53125 15.988281 15.507812 C 17.582031 14.605469 19.269531 13.921875 21.042969 13.457031 C 23.28125 12.875 25.714844 12.542969 28.023438 12.851562 C 28.214844 12.875 28.402344 12.917969 28.582031 12.972656 C 28.585938 12.972656 28.585938 12.972656 28.585938 12.976562 C 28.585938 12.980469 28.582031 12.984375 28.578125 12.984375 C 25.511719 12.890625 22.4375 13.378906 19.558594 14.445312 C 17.203125 15.320312 15.210938 16.714844 13.199219 18.117188 C 11.699219 19.160156 9.960938 20.195312 8.269531 20.945312 C 8.035156 21.046875 8.027344 21.035156 8.246094 20.902344 C 9.523438 20.136719 10.796875 19.285156 12.0625 18.351562 C 12.070312 18.347656 12.070312 18.34375 12.058594 18.34375 C 11.300781 18.40625 10.542969 18.398438 9.785156 18.320312 C 8.757812 18.214844 7.601562 17.925781 6.761719 17.285156 C 6.738281 17.265625 6.722656 17.238281 6.726562 17.203125 L 7.070312 13.5625 C 7.074219 13.550781 7.066406 13.539062 7.050781 13.539062 C 6.269531 13.46875 5.605469 13.222656 4.890625 13.007812 C 4.132812 12.78125 3.28125 12.625 2.5 12.84375 C 1.417969 13.148438 0.8125 14.070312 0.601562 15.136719 C 0.527344 15.507812 0.496094 15.839844 0.5 16.128906 C 0.550781 18.59375 2.019531 20.921875 4.410156 21.738281 C 5.492188 22.109375 6.734375 22.035156 7.851562 21.84375 C 8.167969 21.789062 8.46875 21.714844 8.753906 21.613281 C 9.746094 21.265625 10.5625 20.980469 11.210938 20.761719 C 13.804688 19.871094 16.4375 19.109375 19.109375 18.46875 C 20.058594 18.242188 20.902344 18.007812 21.632812 17.765625 C 22.632812 17.4375 23.566406 16.957031 24.425781 16.339844 C 26.070312 15.160156 27.632812 13.941406 29.472656 13.019531 C 29.484375 13.019531 29.484375 13.011719 29.472656 13.003906 Z M 15.980469 10.3125 C 15.957031 10.632812 15.699219 10.878906 15.402344 10.855469 C 15.101562 10.835938 14.878906 10.558594 14.902344 10.238281 C 14.925781 9.914062 15.183594 9.671875 15.484375 9.691406 C 15.777344 9.710938 16.003906 9.992188 15.980469 10.3125 Z M 17.664062 10.851562 C 17.363281 10.863281 17.109375 10.613281 17.097656 10.292969 C 17.082031 9.972656 17.316406 9.699219 17.617188 9.6875 C 17.917969 9.675781 18.175781 9.925781 18.1875 10.25 C 18.199219 10.570312 17.964844 10.839844 17.664062 10.851562 Z M 17.664062 10.851562 " fill-opacity="1" fill-rule="nonzero"/></g><path fill="#ffffff" d="M 7.109375 17.167969 C 7.546875 17.34375 7.992188 17.476562 8.449219 17.566406 C 9.921875 17.851562 11.433594 17.828125 12.910156 17.585938 C 12.945312 17.582031 13.007812 17.558594 13.035156 17.535156 C 13.492188 17.179688 13.957031 16.832031 14.425781 16.496094 C 14.445312 16.480469 14.441406 16.476562 14.421875 16.480469 C 14.34375 16.496094 14.238281 16.515625 14.09375 16.546875 C 12.613281 16.871094 11.109375 16.941406 9.574219 16.761719 C 8.851562 16.675781 7.945312 16.484375 7.21875 16.113281 C 7.21875 16.113281 7.214844 16.113281 7.214844 16.113281 C 7.207031 16.109375 7.203125 16.117188 7.199219 16.125 L 7.101562 17.160156 C 7.105469 17.164062 7.105469 17.167969 7.109375 17.167969 Z M 7.109375 17.167969 " fill-opacity="1" fill-rule="nonzero"/></svg>