<svg xmlns="http://www.w3.org/2000/svg" xmlns:xlink="http://www.w3.org/1999/xlink" width="15" zoomAndPan="magnify" viewBox="0 0 30 30.000001" height="18" preserveAspectRatio="xMidYMid meet" version="1.0">
  <defs>
    <clipPath id="94fa450fdd">
      <path d="M 0.484375 0 L 24 0 L 24 24 L 0.484375 24 Z M 0.484375 0 " clip-rule="nonzero" />
    </clipPath>
    <clipPath id="48249ab279">
      <path d="M 17 17 L 29.445312 17 L 29.445312 28.960938 L 17 28.960938 Z M 17 17 " clip-rule="nonzero" />
    </clipPath>
  </defs>
  <g clip-path="url(#94fa450fdd)">
    <path fill="#164151" d="M 12.003906 23.019531 C 11.539062 23.019531 11.074219 22.992188 10.609375 22.933594 C 10.148438 22.875 9.691406 22.792969 9.238281 22.679688 C 8.785156 22.566406 8.339844 22.425781 7.90625 22.257812 C 7.472656 22.089844 7.046875 21.894531 6.636719 21.675781 C 6.226562 21.457031 5.828125 21.214844 5.449219 20.945312 C 5.066406 20.675781 4.703125 20.386719 4.359375 20.074219 C 4.011719 19.757812 3.6875 19.425781 3.382812 19.074219 C 3.078125 18.71875 2.796875 18.351562 2.535156 17.960938 C 2.277344 17.574219 2.042969 17.171875 1.832031 16.757812 C 1.625 16.339844 1.441406 15.914062 1.285156 15.472656 C 1.125 15.035156 0.996094 14.585938 0.894531 14.132812 C 0.792969 13.679688 0.71875 13.21875 0.671875 12.753906 C 0.628906 12.289062 0.609375 11.824219 0.621094 11.359375 C 0.632812 10.894531 0.671875 10.429688 0.742188 9.96875 C 0.808594 9.507812 0.90625 9.050781 1.03125 8.601562 C 1.15625 8.152344 1.304688 7.714844 1.484375 7.28125 C 1.664062 6.851562 1.867188 6.433594 2.097656 6.027344 C 2.328125 5.621094 2.582031 5.230469 2.859375 4.859375 C 3.136719 4.484375 3.4375 4.128906 3.757812 3.789062 C 4.078125 3.453125 4.421875 3.136719 4.78125 2.839844 C 5.140625 2.542969 5.519531 2.269531 5.914062 2.023438 C 6.308594 1.773438 6.714844 1.546875 7.136719 1.347656 C 7.558594 1.148438 7.988281 0.976562 8.433594 0.832031 C 8.875 0.683594 9.324219 0.566406 9.78125 0.476562 C 10.238281 0.386719 10.703125 0.324219 11.167969 0.289062 C 11.632812 0.253906 12.097656 0.25 12.5625 0.273438 C 13.027344 0.296875 13.492188 0.347656 13.949219 0.425781 C 14.410156 0.507812 14.863281 0.613281 15.308594 0.75 C 15.753906 0.886719 16.191406 1.046875 16.617188 1.238281 C 17.042969 1.425781 17.457031 1.640625 17.855469 1.882812 C 18.253906 2.121094 18.636719 2.382812 19.003906 2.671875 C 19.375 2.957031 19.722656 3.265625 20.050781 3.597656 C 20.847656 4.394531 21.511719 5.285156 22.042969 6.277344 C 22.574219 7.269531 22.949219 8.320312 23.167969 9.421875 C 23.386719 10.527344 23.441406 11.640625 23.332031 12.757812 C 23.222656 13.878906 22.953125 14.957031 22.519531 16 C 22.089844 17.039062 21.515625 17.992188 20.804688 18.863281 C 20.089844 19.734375 19.265625 20.480469 18.328125 21.105469 C 17.390625 21.730469 16.386719 22.207031 15.308594 22.53125 C 14.230469 22.855469 13.128906 23.019531 12.003906 23.019531 Z M 12.003906 2.765625 C 11.664062 2.765625 11.324219 2.785156 10.988281 2.820312 C 10.652344 2.859375 10.316406 2.917969 9.984375 2.992188 C 9.65625 3.070312 9.328125 3.164062 9.007812 3.277344 C 8.691406 3.390625 8.378906 3.523438 8.074219 3.671875 C 7.765625 3.824219 7.472656 3.988281 7.1875 4.171875 C 6.902344 4.355469 6.625 4.554688 6.363281 4.769531 C 6.101562 4.984375 5.851562 5.214844 5.613281 5.457031 C 5.378906 5.703125 5.15625 5.957031 4.949219 6.226562 C 4.742188 6.496094 4.550781 6.777344 4.375 7.066406 C 4.199219 7.359375 4.042969 7.660156 3.902344 7.96875 C 3.761719 8.277344 3.640625 8.59375 3.535156 8.914062 C 3.429688 9.238281 3.34375 9.566406 3.277344 9.898438 C 3.210938 10.234375 3.164062 10.570312 3.136719 10.90625 C 3.105469 11.246094 3.097656 11.585938 3.109375 11.921875 C 3.121094 12.261719 3.148438 12.601562 3.199219 12.9375 C 3.25 13.273438 3.316406 13.605469 3.40625 13.933594 C 3.492188 14.261719 3.597656 14.582031 3.722656 14.898438 C 3.847656 15.214844 3.988281 15.523438 4.148438 15.820312 C 4.308594 16.121094 4.484375 16.410156 4.675781 16.691406 C 4.871094 16.96875 5.078125 17.238281 5.300781 17.492188 C 5.527344 17.75 5.765625 17.992188 6.015625 18.21875 C 6.265625 18.445312 6.53125 18.660156 6.804688 18.859375 C 7.082031 19.054688 7.367188 19.238281 7.664062 19.402344 C 7.960938 19.566406 8.265625 19.714844 8.582031 19.84375 C 8.894531 19.976562 9.214844 20.085938 9.539062 20.179688 C 9.867188 20.273438 10.199219 20.347656 10.53125 20.40625 C 10.867188 20.460938 11.203125 20.496094 11.542969 20.511719 C 11.882812 20.53125 12.222656 20.527344 12.5625 20.503906 C 12.898438 20.484375 13.234375 20.441406 13.570312 20.382812 C 13.902344 20.320312 14.234375 20.242188 14.558594 20.140625 C 14.882812 20.042969 15.203125 19.925781 15.511719 19.792969 C 15.824219 19.65625 16.128906 19.503906 16.421875 19.335938 C 16.714844 19.164062 17 18.980469 17.273438 18.777344 C 17.546875 18.574219 17.804688 18.359375 18.054688 18.125 C 18.300781 17.894531 18.535156 17.648438 18.753906 17.390625 C 18.972656 17.128906 19.179688 16.859375 19.367188 16.578125 C 19.554688 16.292969 19.726562 16.003906 19.882812 15.699219 C 20.039062 15.398438 20.175781 15.089844 20.292969 14.769531 C 20.414062 14.453125 20.515625 14.128906 20.597656 13.800781 C 20.679688 13.46875 20.742188 13.136719 20.789062 12.800781 C 20.832031 12.464844 20.855469 12.125 20.863281 11.785156 C 20.867188 11.445312 20.851562 11.109375 20.820312 10.769531 C 20.785156 10.433594 20.734375 10.097656 20.660156 9.765625 C 20.589844 9.433594 20.5 9.105469 20.390625 8.785156 C 20.28125 8.464844 20.152344 8.148438 20.007812 7.84375 C 19.863281 7.535156 19.699219 7.238281 19.519531 6.949219 C 19.339844 6.660156 19.144531 6.386719 18.933594 6.121094 C 18.722656 5.851562 18.496094 5.601562 18.257812 5.359375 C 17.425781 4.53125 16.472656 3.890625 15.386719 3.441406 C 14.304688 2.992188 13.175781 2.765625 12.003906 2.765625 Z M 12.003906 2.765625 " fill-opacity="1" fill-rule="nonzero" />
  </g>
  <g clip-path="url(#48249ab279)">
    <path fill="#164151" d="M 28.136719 29.027344 C 27.792969 29.027344 27.496094 28.902344 27.253906 28.660156 L 18.28125 19.691406 C 18.164062 19.574219 18.074219 19.441406 18.011719 19.285156 C 17.945312 19.132812 17.914062 18.972656 17.914062 18.808594 C 17.914062 18.640625 17.945312 18.480469 18.011719 18.328125 C 18.074219 18.175781 18.164062 18.039062 18.28125 17.921875 C 18.398438 17.804688 18.535156 17.714844 18.6875 17.652344 C 18.839844 17.589844 19 17.554688 19.167969 17.554688 C 19.332031 17.554688 19.492188 17.589844 19.644531 17.652344 C 19.796875 17.714844 19.933594 17.804688 20.050781 17.921875 L 29.019531 26.894531 C 29.195312 27.074219 29.308594 27.289062 29.359375 27.535156 C 29.40625 27.78125 29.382812 28.023438 29.285156 28.253906 C 29.191406 28.488281 29.039062 28.675781 28.828125 28.816406 C 28.617188 28.957031 28.386719 29.027344 28.136719 29.027344 Z M 28.136719 29.027344 " fill-opacity="1" fill-rule="nonzero" />
  </g>
</svg>